<svg xmlns:dc="http://purl.org/dc/elements/1.1/" xmlns:cc="http://creativecommons.org/ns#" xmlns:rdf="http://www.w3.org/1999/02/22-rdf-syntax-ns#" xmlns:svg="http://www.w3.org/2000/svg" xmlns="http://www.w3.org/2000/svg" version="1.1" viewBox="0 0 47.999997 60" x="0px" y="0px"><path style="color:#000000;font-style:normal;font-variant:normal;font-weight:normal;font-stretch:normal;font-size:medium;line-height:normal;font-family:sans-serif;text-indent:0;text-align:start;text-decoration:none;text-decoration-line:none;text-decoration-style:solid;text-decoration-color:#000000;letter-spacing:normal;word-spacing:normal;text-transform:none;direction:ltr;block-progression:tb;writing-mode:lr-tb;baseline-shift:baseline;text-anchor:start;white-space:normal;clip-rule:nonzero;display:inline;overflow:visible;visibility:visible;opacity:1;isolation:auto;mix-blend-mode:normal;color-interpolation:sRGB;color-interpolation-filters:linearRGB;solid-color:#000000;solid-opacity:1;fill:#000000;fill-opacity:1;fill-rule:evenodd;stroke:none;stroke-width:1.99999976;stroke-linecap:round;stroke-linejoin:miter;stroke-miterlimit:4;stroke-dasharray:none;stroke-dashoffset:0;stroke-opacity:1;color-rendering:auto;image-rendering:auto;shape-rendering:auto;text-rendering:auto;enable-background:accumulate" d="m 24.003546,9.99e-5 c 3.637117,0 7.275236,1.3133942 10.140704,3.9378125 5.617672,5.1450888 6.452157,13.6751256 2.02658,19.8160236 -2.059699,2.6516 -3.162041,5.905508 -3.162041,9.244873 0,0.795323 -0.316784,1.558884 -0.879412,2.121259 -0.562627,0.562384 -1.326572,0.878979 -2.122336,0.878979 l -12.006991,0 c -0.795764,0 -1.559709,-0.316595 -2.122336,-0.878979 -0.562628,-0.562375 -0.879412,-1.325936 -0.879412,-2.121259 0,-3.339365 -1.114049,-6.585462 -3.173748,-9.237063 C 7.3989777,17.620849 8.2451705,9.0830012 13.862841,3.9379124 16.728409,1.3134941 20.366428,9.99e-5 24.003546,9.99e-5 Z m 0,1.9923381 c -3.149334,0 -6.298768,1.1400605 -8.788318,3.4202015 -4.979199,4.5602623 -5.6433856,12.1442545 -1.532092,17.4994295 2.149452,2.928862 3.316331,6.458682 3.316331,10.08674 0,0.265621 0.105261,0.519262 0.293171,0.707086 0.187909,0.187825 0.441657,0.292994 0.707412,0.292994 l 12.006991,0 c 0.265755,0 0.519503,-0.105169 0.707412,-0.292994 0.18791,-0.187824 0.293171,-0.441465 0.293171,-0.707086 0,-3.628058 1.174884,-7.151877 3.324236,-10.08088 C 38.443054,17.562754 37.771062,9.9729018 32.791863,5.4126395 30.302313,3.1324985 27.152879,1.992438 24.003546,1.992438 Z m 6.003495,36.006768 a 1.0006826,1.0001793 0 1 1 0,2.000159 l -12.006991,0 a 1.0006826,1.0001793 0 1 1 0,-2.000159 l 12.006991,0 z m 0,4.000318 a 1.0006826,1.0001793 0 1 1 0,2.000158 l -12.006991,0 a 1.0006826,1.0001793 0 1 1 0,-2.000158 l 12.006991,0 z m -3.001748,4.000317 a 1.0006826,1.0001793 0 1 1 0,2.000159 l -6.003495,0 a 1.0006826,1.0001793 0 1 1 0,-2.000159 l 6.003495,0 z"/><text x="0" y="63" fill="#000000" font-size="5px" font-weight="bold" font-family="'Helvetica Neue', Helvetica, Arial-Unicode, Arial, Sans-serif">Created by ICONCRAFT</text><text x="0" y="68" fill="#000000" font-size="5px" font-weight="bold" font-family="'Helvetica Neue', Helvetica, Arial-Unicode, Arial, Sans-serif">from the Noun Project</text></svg>